<svg width="111" height="42" viewBox="0 0 111 42" fill="none" xmlns="http://www.w3.org/2000/svg">
<path d="M6.6 41.07C6.24 41.69 5.86 42 5.46 42C5.25 42 5.07 41.88 4.92 41.64L0.209999 33.61C0.0699991 33.37 0 33.07 0 32.72C0 32.03 0.180001 31.39 0.540001 30.79L17.1 2.09C17.36 1.61 17.76 1.21 18.3 0.880005C18.84 0.550005 19.34 0.380005 19.82 0.380005H28.39C29.03 0.380005 29.35 0.670006 29.35 1.24001C29.35 1.50001 29.27 1.79001 29.1 2.10001L27.1 5.53001C26.93 5.84001 26.85 6.13001 26.85 6.39001C26.85 6.96001 27.18 7.25001 27.85 7.25001C28.71 7.25001 29.14 7.45001 29.14 7.86001C29.14 8.22001 28.83 8.50001 28.21 8.72001C27.71 8.89001 27.26 8.97001 26.85 8.97001C26.37 8.97001 25.87 9.14001 25.35 9.47001C24.83 9.80001 24.42 10.21 24.14 10.68L6.6 41.07Z" fill="black"/>
<path d="M16.74 29.51C16.07 29.51 15.74 29.22 15.74 28.65C15.74 28.39 15.82 28.1 15.99 27.79L24.91 12.37C25.17 11.89 25.57 11.49 26.11 11.16C26.65 10.83 27.15 10.66 27.63 10.66H36.2C36.84 10.66 37.16 10.95 37.16 11.52C37.16 11.78 37.08 12.07 36.91 12.38L27.99 27.8C27.73 28.28 27.33 28.68 26.79 29.01C26.25 29.34 25.76 29.51 25.31 29.51H16.74Z" fill="black"/>
<path d="M34.23 41.07C33.87 41.69 33.49 42 33.09 42C32.88 42 32.7 41.88 32.55 41.64L27.84 33.61C27.7 33.37 27.63 33.07 27.63 32.72C27.63 32.03 27.81 31.39 28.17 30.79L44.73 2.09C44.99 1.61 45.39 1.21 45.93 0.880005C46.47 0.550005 46.97 0.380005 47.45 0.380005H56.02C56.66 0.380005 56.98 0.670006 56.98 1.24001C56.98 1.50001 56.9 1.79001 56.73 2.10001L54.73 5.53001C54.56 5.84001 54.48 6.13001 54.48 6.39001C54.48 6.96001 54.81 7.25001 55.48 7.25001C56.34 7.25001 56.77 7.45001 56.77 7.86001C56.77 8.22001 56.46 8.50001 55.84 8.72001C55.34 8.89001 54.89 8.97001 54.48 8.97001C54 8.97001 53.5 9.14001 52.98 9.47001C52.46 9.80001 52.05 10.21 51.77 10.68L34.23 41.07Z" fill="black"/>
<path d="M79.43 10.66C80.07 10.66 80.39 10.95 80.39 11.52C80.39 11.78 80.31 12.07 80.14 12.38L71.22 27.8C70.96 28.28 70.56 28.68 70.02 29.01C69.48 29.34 68.99 29.51 68.54 29.51H44.55C43.88 29.51 43.55 29.22 43.55 28.65C43.55 28.39 43.63 28.1 43.8 27.79L52.72 12.37C52.98 11.89 53.38 11.49 53.92 11.16C54.46 10.83 54.96 10.66 55.44 10.66H79.43ZM67.15 14.08C67.32 13.77 67.4 13.49 67.4 13.22C67.4 12.65 67.08 12.36 66.44 12.36C65.97 12.36 65.47 12.53 64.94 12.86C64.42 13.19 64.01 13.6 63.73 14.08L56.81 26.08C56.64 26.39 56.56 26.67 56.56 26.94C56.56 27.51 56.88 27.8 57.52 27.8C58 27.8 58.5 27.63 59.04 27.3C59.58 26.97 59.97 26.56 60.24 26.09L67.15 14.08Z" fill="black"/>
<path d="M109.06 10.66C109.7 10.66 110.02 10.95 110.02 11.52C110.02 11.78 109.94 12.07 109.77 12.38L100.85 27.8C100.59 28.28 100.19 28.68 99.65 29.01C99.11 29.34 98.62 29.51 98.17 29.51H74.18C73.51 29.51 73.18 29.22 73.18 28.65C73.18 28.39 73.26 28.1 73.43 27.79L82.35 12.37C82.61 11.89 83.01 11.49 83.55 11.16C84.09 10.83 84.59 10.66 85.07 10.66H93.64C94.28 10.66 94.6 10.95 94.6 11.52C94.6 11.78 94.52 12.07 94.35 12.38L86.42 26.09C86.25 26.4 86.17 26.69 86.17 26.95C86.17 27.52 86.49 27.81 87.13 27.81C87.61 27.81 88.11 27.64 88.65 27.31C89.19 26.98 89.58 26.57 89.85 26.1L97.78 12.39C98.04 11.91 98.44 11.51 98.98 11.18C99.52 10.85 100.02 10.68 100.5 10.68H109.06V10.66Z" fill="black"/>
</svg>
