<svg width="24" height="25" viewBox="0 0 24 25" fill="none" xmlns="http://www.w3.org/2000/svg">
<path fill-rule="evenodd" clip-rule="evenodd" d="M12.9658 4.62173C12.5377 3.91466 11.5119 3.91466 11.0838 4.62173L7.95422 9.79089C7.51038 10.524 8.03822 11.4606 8.8952 11.4606H15.1544C16.0114 11.4606 16.5392 10.524 16.0954 9.79089L12.9658 4.62173ZM11.8533 7.19106C11.9313 7.0628 12.1175 7.06301 12.1952 7.19146L13.3846 9.15706C13.4653 9.29035 13.3693 9.4606 13.2135 9.4606H10.8286C10.6726 9.4606 10.5767 9.28995 10.6577 9.15667L11.8533 7.19106Z" fill="#01141B"/>
<path fill-rule="evenodd" clip-rule="evenodd" d="M16.9288 13.0606C14.6525 13.0606 12.8164 14.9152 12.8164 17.2106C12.8164 19.5059 14.6525 21.3606 16.9288 21.3606C19.2051 21.3606 21.0412 19.5059 21.0412 17.2106C21.0412 14.9152 19.2051 13.0606 16.9288 13.0606ZM15.4236 15.6899C15.823 15.2869 16.3645 15.0606 16.9288 15.0606C17.4931 15.0606 18.0346 15.2869 18.434 15.6899C18.8334 16.0931 19.0579 16.6401 19.0579 17.2106C19.0579 17.7811 18.8334 18.3281 18.434 18.7312C18.0346 19.1343 17.4931 19.3606 16.9288 19.3606C16.3645 19.3606 15.823 19.1343 15.4236 18.7312C15.0243 18.3281 14.7997 17.7811 14.7997 17.2106C14.7997 16.6401 15.0243 16.0931 15.4236 15.6899Z" fill="#01141B"/>
<path fill-rule="evenodd" clip-rule="evenodd" d="M5.00002 13.5106C4.39251 13.5106 3.90002 14.0031 3.90002 14.6106V19.8106C3.90002 20.4181 4.39251 20.9106 5.00002 20.9106H10.1332C10.7407 20.9106 11.2332 20.4181 11.2332 19.8106V14.6106C11.2332 14.0031 10.7407 13.5106 10.1332 13.5106H5.00002ZM5.88331 15.7106C5.88331 15.6001 5.97285 15.5106 6.08331 15.5106H9.04987C9.16033 15.5106 9.24987 15.6001 9.24987 15.7106V18.7106C9.24987 18.8211 9.16033 18.9106 9.04987 18.9106H6.08331C5.97285 18.9106 5.88331 18.8211 5.88331 18.7106V15.7106Z" fill="#01141B"/>
</svg>
